<svg xmlns="http://www.w3.org/2000/svg" width="41.547" height="25.024" viewBox="0 0 41.547 25.024"><defs><style>.a{fill:#f29f5c;}.b{fill:#d37d42;}.c{fill:#f9c295;}.d{fill:#e59f6a;}.e{fill:#5c9cee;}.f{fill:#3580d3;}.g{fill:#ed5575;}.h{fill:#cc3a60;}.i{fill:#ebeef2;}</style></defs><path class="a" d="M149.346,126.969l-1.055-8.573-1.978.243h0l-3.834-2.158a2.311,2.311,0,0,0-1.346-.287l-6.054.56a2.31,2.31,0,0,0-1.785,1.14l-4.267,7.344a1.015,1.015,0,0,0,.519,1.459l.175.066a3.786,3.786,0,0,0,1.026.229l-.541.471-1.082.942-3.076,2.624a1.314,1.314,0,0,0-.127,1.855l.312.357a1.689,1.689,0,0,0,2.383.163l1.176,1.349a1.686,1.686,0,0,0,2.383.163l1.174,1.349a1.69,1.69,0,0,0,2.384.164l.638.552a1.69,1.69,0,0,0,2.384.164l.868-.757,7.295-5.681.008-.007,2.878,0Z" transform="translate(-115.406 -115.017)"/><path class="b" d="M146.23,263.523l-.008.007-7.295,5.681-.868.757a1.69,1.69,0,0,1-2.384-.164l-.638-.552a1.69,1.69,0,0,1-2.384-.164l-1.174-1.349a1.686,1.686,0,0,1-2.383-.163l-1.176-1.349a1.689,1.689,0,0,1-2.092.1,1.314,1.314,0,0,0,.1,1.589l.312.357a1.689,1.689,0,0,0,2.383.163l1.176,1.349a1.686,1.686,0,0,0,2.383.163l1.175,1.349a1.69,1.69,0,0,0,2.384.164l.638.552a1.69,1.69,0,0,0,2.384.164l.868-.757,7.295-5.681.008-.007,2.878,0-.318-2.587Z" transform="translate(-115.417 -250.051)"/><path class="c" d="M102.643,136.037l-3.908-3.37-1.087-.936-.778-.67-3.344-2.882.386-3.287a2.269,2.269,0,0,0-1.648-2.451l-7.289-2.017a1.687,1.687,0,0,0-1.951.857l-.917,1.789-3.935-.267-1.008,8.579-.438,3.728,3.83.255.008.007,8,6.9.872.752a1.69,1.69,0,0,0,2.383-.177l1.167-1.354a1.69,1.69,0,0,0,2.383-.177l1.167-1.355a1.686,1.686,0,0,0,2.382-.176l1.168-1.355a1.689,1.689,0,0,0,2.382-.176l.31-.359A1.314,1.314,0,0,0,102.643,136.037Z" transform="translate(-70.501 -118.856)"/><g transform="translate(18.41 16.154)"><path class="d" d="M240.6,301.909l-1.19-1.027a1.4,1.4,0,0,1-.058,1.75l-.329.381a1.793,1.793,0,0,1-2.529.187l-1.24,1.439a1.79,1.79,0,0,1-2.528.187l-1.239,1.439a1.794,1.794,0,0,1-2.53.188l-1.239,1.437a1.781,1.781,0,0,1-.85.548l.527.455a1.69,1.69,0,0,0,2.383-.177l1.167-1.354a1.69,1.69,0,0,0,2.383-.177l1.167-1.355a1.686,1.686,0,0,0,2.382-.176l1.168-1.355a1.689,1.689,0,0,0,2.382-.176l.31-.359A1.314,1.314,0,0,0,240.6,301.909Z" transform="translate(-226.872 -300.883)"/><path class="d" d="M333.858,314.835l-2.142-1.847a.609.609,0,0,0-.795.922l2.138,1.843.4-.467a1.685,1.685,0,0,0,.529.308A.609.609,0,0,0,333.858,314.835Z" transform="translate(-322.284 -311.87)"/><path class="d" d="M292.692,336.462a.608.608,0,0,0-.127-.769l-1.924-1.659a.609.609,0,0,0-.795.922l1.924,1.659,0,0,.4-.462A1.683,1.683,0,0,0,292.692,336.462Z" transform="translate(-284.542 -331.208)"/></g><g transform="translate(9.485 1.166)"><path class="a" d="M117.658,298.34l-.464.612a1.514,1.514,0,0,0,.293,2.121h0a1.514,1.514,0,0,0,2.121-.293l.464-.612a1.514,1.514,0,0,0-.293-2.121h0A1.514,1.514,0,0,0,117.658,298.34Z" transform="translate(-116.887 -283.008)"/><path class="a" d="M147.817,314.207l-.873,1.153a1.514,1.514,0,0,0,.293,2.121h0a1.514,1.514,0,0,0,2.121-.293l.873-1.153a1.514,1.514,0,0,0-.293-2.121h0A1.514,1.514,0,0,0,147.817,314.207Z" transform="translate(-144.223 -297.587)"/><path class="a" d="M177.883,331.582l-1.19,1.571a1.514,1.514,0,0,0,.293,2.121h0a1.514,1.514,0,0,0,2.121-.293l1.19-1.571a1.514,1.514,0,0,0-.293-2.121h0A1.514,1.514,0,0,0,177.883,331.582Z" transform="translate(-171.558 -313.552)"/><path class="a" d="M207.7,352.988l-1.259,1.662a1.514,1.514,0,0,0,.293,2.121h0a1.514,1.514,0,0,0,2.121-.293l1.259-1.662a1.514,1.514,0,0,0-.293-2.121h0A1.514,1.514,0,0,0,207.7,352.988Z" transform="translate(-198.894 -333.221)"/><path class="a" d="M183.6,118.638l-3.834-2.158a2.311,2.311,0,0,0-1.346-.287l-6.054.56a2.31,2.31,0,0,0-1.785,1.14l-4.267,7.344a1.015,1.015,0,0,0,.519,1.459l.175.066a3.794,3.794,0,0,0,4.349-1.238l1.635-2.128s3.93,4.55,8.257-.764" transform="translate(-162.177 -116.183)"/></g><path class="e" d="M406.335,118.635l-2.005-16.29a.608.608,0,0,0-.678-.53l-4.689.577a2.228,2.228,0,0,0-1.937,2.481l1.61,13.081a2.224,2.224,0,0,0,2.481,1.937l4.689-.577A.609.609,0,0,0,406.335,118.635Z" transform="translate(-364.793 -101.811)"/><path class="f" d="M422.9,286.34l-.22-1.788a.636.636,0,0,1-.449.275l-4.916.605a2.33,2.33,0,0,1-2.279-1.105l.164,1.333a2.224,2.224,0,0,0,2.481,1.937l4.689-.577A.609.609,0,0,0,422.9,286.34Z" transform="translate(-381.358 -269.516)"/><path class="g" d="M7.378,102.392l-4.689-.577a.609.609,0,0,0-.678.53L0,118.634a.609.609,0,0,0,.53.678l4.689.577A2.224,2.224,0,0,0,7.7,117.953l1.61-13.081A2.228,2.228,0,0,0,7.378,102.392Z" transform="translate(0 -101.81)"/><path class="h" d="M0,286.34l.22-1.788a.636.636,0,0,0,.449.275l4.916.605a2.33,2.33,0,0,0,2.279-1.105L7.7,285.659A2.224,2.224,0,0,1,5.224,287.6l-4.689-.577A.609.609,0,0,1,0,286.34Z" transform="translate(0 -269.516)"/><g transform="translate(2.653 13.04)"><ellipse class="i" cx="1.176" cy="1.176" rx="1.176" ry="1.176" transform="translate(33.822)"/><ellipse class="i" cx="1.176" cy="1.176" rx="1.176" ry="1.176"/></g></svg>