<svg xmlns="http://www.w3.org/2000/svg" xmlns:xlink="http://www.w3.org/1999/xlink" width="71.333" height="71.333" viewBox="0 0 71.333 71.333"><defs><style>.a{fill:#fff;}.b{filter:url(#a);}</style><filter id="a" x="0" y="0" width="71.333" height="71.333" filterUnits="userSpaceOnUse"><feOffset input="SourceAlpha"/><feGaussianBlur stdDeviation="3" result="b"/><feFlood flood-opacity="0.161"/><feComposite operator="in" in2="b"/><feComposite in="SourceGraphic"/></filter></defs><g transform="translate(9 9)"><g class="b" transform="matrix(1, 0, 0, 1, -9, -9)"><path class="a" d="M50,2H7.333A5.349,5.349,0,0,0,2,7.333v48L12.667,44.667H50a5.349,5.349,0,0,0,5.333-5.333v-32A5.349,5.349,0,0,0,50,2ZM12.667,20.667h32V26h-32ZM34,34H12.667V28.667H34ZM44.667,18h-32V12.667h32Z" transform="translate(7 7)"/></g></g></svg>