<svg xmlns="http://www.w3.org/2000/svg" width="24" height="24" viewBox="0 0 24 24"><defs><style>.a{fill:#17baff;}</style></defs><g transform="translate(-0.001)"><g transform="translate(0.001)"><path class="a" d="M24,10.721A11.363,11.363,0,0,0,13.28,0h-.693A11.383,11.383,0,0,0,2.255,16.111l-2.2,6.613A.969.969,0,0,0,1.277,23.95l6.613-2.2a11.3,11.3,0,0,0,4.7,1.029h.029A11.4,11.4,0,0,0,24,11.386v-.612C24,10.757,24,10.739,24,10.721Zm-1.937.666v0a9.459,9.459,0,0,1-9.451,9.446h-.024a9.346,9.346,0,0,1-4.194-1,.97.97,0,0,0-.744-.054L2.5,21.5l1.715-5.147a.97.97,0,0,0-.054-.744A9.434,9.434,0,0,1,8.394,2.938a9.347,9.347,0,0,1,4.2-1H13.2A9.414,9.414,0,0,1,22.062,10.8v.585Z" transform="translate(-0.001)"/></g></g></svg>