<svg xmlns="http://www.w3.org/2000/svg" width="38" height="38" viewBox="0 0 38 38"><defs><style>.a{fill:#dc8744;}.b{fill:#fcd462;}.c{fill:#44c4a1;}.d{fill:#31978c;}.e{fill:#3ea69b;}.f{fill:#e1e6e9;}</style></defs><path class="a" d="M100.537,315.921h3.5l-3.985-13.456h-3.5l2.142,7.232H84.163l2.142-7.232h-3.5l-3.985,13.456h3.5l1.093-3.691H99.444Z" transform="translate(-72.429 -277.921)"/><path class="b" d="M0,25.985V2.027A2.027,2.027,0,0,1,2.028,0H35.974A2.027,2.027,0,0,1,38,2.027V25.985a2.027,2.027,0,0,1-2.027,2.027H2.028A2.027,2.027,0,0,1,0,25.985Z" transform="translate(-0.001 0)"/><rect class="c" width="33.085" height="23.096" transform="translate(2.458 2.458)"/><g transform="translate(2.458 2.458)"><rect class="d" width="1.704" height="23.096"/><rect class="d" width="1.704" height="23.096" transform="translate(31.38 0.002)"/></g><g transform="translate(2.458 2.458)"><path class="e" d="M61.608,32.572H31.979l-1.691-2.283H63.373Z" transform="translate(-30.288 -30.289)"/><path class="e" d="M61.608,286.781H31.979l-1.691,2.283H63.373Z" transform="translate(-30.288 -265.968)"/></g><rect class="f" width="9.155" height="2.102" transform="translate(23.342 21.169)"/></svg>