<svg xmlns="http://www.w3.org/2000/svg" width="24" height="24" viewBox="0 0 24 24"><defs><style>.a,.b{fill:none;}.a{opacity:0.1;}.c{fill:#1773bf;}</style></defs><path class="a" d="M0,0H24V24H0Z"/><path class="b" d="M0,0H24V24H0Z"/><path class="c" d="M1,18v3H4A3,3,0,0,0,1,18Zm0-4v2a5,5,0,0,1,5,5H8A7,7,0,0,0,1,14ZM19,7H5V8.63A13.033,13.033,0,0,1,13.37,17H19ZM1,10v2a9,9,0,0,1,9,9h2A11,11,0,0,0,1,10ZM21,3H3A2.006,2.006,0,0,0,1,5V8H3V5H21V19H14v2h7a2.006,2.006,0,0,0,2-2V5A2.006,2.006,0,0,0,21,3Z"/></svg>