<svg xmlns="http://www.w3.org/2000/svg" width="23.93" height="23.983" viewBox="0 0 23.93 23.983"><defs><style>.a{fill:#17baff;}</style></defs><g transform="translate(0 14.715)"><path class="a" d="M12.53,314.134c-6.709,0-11.965,3.109-11.965,7.078v1.222a.969.969,0,0,0,1.938,0v-1.222c0-2.786,4.592-5.14,10.028-5.14s10.028,2.354,10.028,5.14v1.222a.969.969,0,0,0,1.938,0v-1.222C24.5,317.243,19.24,314.134,12.53,314.134Z" transform="translate(-0.565 -314.134)"/></g><g transform="translate(6.161 0)"><path class="a" d="M143.75,5a5.856,5.856,0,1,0-9.281,5.563,5.812,5.812,0,0,0,3.476,1.154,5.936,5.936,0,0,0,.871-.065A5.863,5.863,0,0,0,143.75,5Zm-5.218,4.735a3.918,3.918,0,1,1,3.3-4.451A3.892,3.892,0,0,1,138.532,9.732Z" transform="translate(-132.1 0)"/></g></svg>