<svg xmlns="http://www.w3.org/2000/svg" width="122.474" height="114.488" viewBox="0 0 122.474 114.488"><defs><style>.a{fill:#54e360;}.b{fill:#17baff;}.c{fill:#1766b3;}.d{fill:#1887b5;}.e{fill:#002345;}</style></defs><g transform="matrix(0.966, 0.259, -0.259, 0.966, 25.881, -1.686)"><g transform="translate(0 63.175)"><path class="a" d="M2.93,396.843a2.93,2.93,0,0,1-2.071-5l22.086-22.087a2.93,2.93,0,0,1,4.144,4.144L5,395.985A2.921,2.921,0,0,1,2.93,396.843Zm0,0" transform="translate(0 -360.022)"/><path class="a" d="M93.812,433.41a2.93,2.93,0,0,1-2.071-5l13.21-13.211a2.93,2.93,0,1,1,4.144,4.143L95.884,432.552A2.92,2.92,0,0,1,93.812,433.41Zm0,0" transform="translate(-73.132 -396.589)"/><path class="a" d="M2.93,342.527a2.93,2.93,0,0,1-2.071-5l13.21-13.211a2.93,2.93,0,0,1,4.144,4.143L5,341.668A2.921,2.921,0,0,1,2.93,342.527Zm0,0" transform="translate(0 -323.456)"/></g><path class="b" d="M123.685,29.707,97.125,3.146a10.8,10.8,0,0,0-15.237,0L36.5,48.534a10.787,10.787,0,0,0,0,15.237l26.56,26.56a10.8,10.8,0,0,0,15.237,0l45.387-45.388A10.786,10.786,0,0,0,123.685,29.707Zm0,0" transform="translate(-26.836)"/><path class="c" d="M230.163,29.707,203.6,3.146a10.8,10.8,0,0,0-15.237,0L165.672,25.84l41.8,41.8,22.694-22.694A10.786,10.786,0,0,0,230.163,29.707Zm0,0" transform="translate(-133.314)"/><path class="d" d="M36.445,58.544a2.93,2.93,0,0,1-.571-5.8l41.865-8.373L86.112,2.5a2.93,2.93,0,0,1,5.746,1.149L83.1,47.432a2.93,2.93,0,0,1-2.3,2.3l-43.78,8.756A2.935,2.935,0,0,1,36.445,58.544Zm0,0" transform="translate(-26.972 -0.119)"/><path class="e" d="M265.288,47.433l8.756-43.78A2.93,2.93,0,0,0,268.3,2.5l-8.373,41.865,4.562,4.561A2.926,2.926,0,0,0,265.288,47.433Zm0,0" transform="translate(-209.159 -0.119)"/></g></svg>