<svg xmlns="http://www.w3.org/2000/svg" width="19.792" height="20" viewBox="0 0 19.792 20"><defs><style>.a{fill:#1773bf;}</style></defs><g transform="translate(-0.288)"><g transform="translate(6.824 0)"><circle class="a" cx="2.907" cy="2.907" r="2.907"/></g><g transform="translate(0.288 3.721)"><g transform="translate(0)"><path class="a" d="M18.637,16.622h0a7.09,7.09,0,0,0-1.813-2.945V10.343a3.021,3.021,0,0,0-2.639,1.55,9.762,9.762,0,0,0-.919-.352,4.107,4.107,0,0,1-.976,1.149c.277.055.546.119.8.194L12.771,14a9.814,9.814,0,0,0-2.707-.364,9.538,9.538,0,0,0-3.1.49l-.383-1.1c.24-.084.491-.158.749-.224a4.118,4.118,0,0,1-1-1.06,8.463,8.463,0,0,0-3.953,3.1c-.033-.023-.065-.047-.094-.072A1.072,1.072,0,0,1,2,14.438a.775.775,0,0,1-.087-.355H.288a2.407,2.407,0,0,0,.264,1.092A2.789,2.789,0,0,0,1.63,16.3a6.363,6.363,0,0,0-.388,2.183,6.934,6.934,0,0,0,2.791,5.425v2.715H7.057V25.477a10.447,10.447,0,0,0,6.046,0v1.145h3.023V23.907a7.254,7.254,0,0,0,2.576-3.8H20.08V16.622Zm-3.092.233a.581.581,0,1,1,.581-.581A.581.581,0,0,1,15.545,16.855Z" transform="translate(-0.288 -10.343)"/></g></g></g></svg>