<svg xmlns="http://www.w3.org/2000/svg" xmlns:xlink="http://www.w3.org/1999/xlink" width="329" height="188" viewBox="0 0 329 188"><defs><filter id="a" x="-12" y="-11" width="353" height="212" filterUnits="userSpaceOnUse"><feOffset dy="1" input="SourceAlpha"/><feGaussianBlur stdDeviation="4" result="b"/><feFlood flood-opacity="0.2"/><feComposite operator="in" in2="b"/><feComposite in="SourceGraphic"/></filter><clipPath id="c"><g transform="matrix(1, 0, 0, 1, 0, 0)" filter="url(#a)"><path d="M0,0H329a0,0,0,0,1,0,0V178a10,10,0,0,1-10,10H10A10,10,0,0,1,0,178V0A0,0,0,0,1,0,0Z" transform="translate(2.34 0.45)" fill="#0972be"/></g></clipPath></defs><g transform="translate(-2.337 -0.45)" clip-path="url(#c)"><g transform="translate(-81.297 -95.675)" opacity="0.66"><path d="M98.619,384.881c.076-1.873,29.643-5.563,31.57-5.845a459.914,459.914,0,0,1,76.754-4.943c31.295.7,62.87,4.859,92.793,15.39,18.977,6.679,36.54,17.215,52.851,29.8,16.819,12.973,31.651,28.8,47.8,42.96a656.689,656.689,0,0,0,81.8,61.247c28.675,18.144,59.717,29.1,91.884,37.316L562.059,301.86l-460.3,5.23Z" transform="translate(-98.619 -264.141)" fill="#fff" opacity="0.1" style="isolation:isolate"/><path d="M98.619,380.889c.064-2.457,26.5-5.652,28.179-5.877,21.989-2.94,44.211-2.67,66.114,1.963,20.222,4.278,41.36,12.29,60.027,26.552,18.563,14.181,34.194,37.086,50,58.433,20.966,28.321,43.038,54.828,67.27,74.455,25.216,20.426,52.535,33.1,79.661,43.722L440.988,286.86l-340.053,5.923Z" transform="translate(17.4 -286.86)" fill="#fff" opacity="0.1" style="isolation:isolate"/></g></g></svg>